<?xml version="1.0" encoding="utf-8"?>
<!-- Generator: Adobe Illustrator 25.4.1, SVG Export Plug-In . SVG Version: 6.00 Build 0)  -->
<svg version="1.1" id="Layer_1" xmlns="http://www.w3.org/2000/svg" xmlns:xlink="http://www.w3.org/1999/xlink" x="0px" y="0px"
	 viewBox="0 0 553 339" style="enable-background:new 0 0 553 339;" xml:space="preserve">
<style type="text/css">
	.st0{display:none;fill:#EEF2F8;}
	.st1{fill:#E9F6FF;}
	.st2{opacity:0.42;fill:#159CE4;}
</style>
<g>
	<path class="st0" d="M47.63,5.11c0,0-72.21,58.32-11.03,93.16c30.14,17.16,35.65,39.23,16.54,53.93
		c-29.14,22.43-8.46,41.68,44.12,46.58c80.23,7.48,44.12,41.68,55.15,61.29c11.03,19.61,43.42,27.96,104.78,14.71
		c90.8-19.61,143.38-7.35,181.98,29.42c38.6,36.77,110.29,34.32,110.29,34.32V5.11H47.63z"/>
	<path class="st1" d="M59.74-0.23c0,0-70.87,59.26-10.82,94.66c29.58,17.44,34.99,39.86,16.24,54.8
		c-28.6,22.79-8.31,42.35,43.3,47.33c78.75,7.6,43.3,42.35,54.12,62.28c10.83,19.93,42.62,28.41,102.83,14.95
		c89.11-19.93,140.72-7.47,178.6,29.89c37.89,37.37,108.25,34.88,108.25,34.88V-0.23H59.74z"/>
	<path class="st2" d="M71.2,50.05c39.02,39.31,19.23,91.69,71.61,109.33c55.03,18.53,106.87-35.53,139.47,11.52
		c27.67,39.92,43.86,52.61,101.9,63.84c27.19,5.26,87.65,81.11,168.8,29.68V-0.23H22.89C26.58,26.66,49,27.68,71.2,50.05z"/>
</g>
</svg>
